# xmcd CD database file
#
# Track frame offsets:
#	150
#	13076
#	26742
#	43751
#	55242
#	68244
#	85062
#	97379
#	110203
#	126280
#	141873
#	156818
#	168829
#
# Disc length: 2427 seconds
#
# Revision: 0
# Processed by: cddbd v1.5.2PL0 Copyright (c) Steve Scherf et al.
# Submitted via: CDex 1.51
#
DISCID=b909790d
DTITLE=Larry Pierce - Sick Minded Bastard
DYEAR=2009
DGENRE=Country
TTITLE0=All I Did Was Just Fuck Her
TTITLE1=Fuck Is The Only Word For You
TTITLE2=Sixteen Dollars
TTITLE3=Don't Fart When You Screw
TTITLE4=I'm Married
TTITLE5=Pussy On The Side
TTITLE6=Alter Ego
TTITLE7=Big Tit Linda
TTITLE8=Your Hotness
TTITLE9=Donkey Dick
TTITLE10=That Doesn't Hurt Her Pussy
TTITLE11=I Got My Willie Out
TTITLE12=Cum Dumpster
EXTD=YEAR: 2009
EXTT0=
EXTT1=
EXTT2=
EXTT3=
EXTT4=
EXTT5=
EXTT6=
EXTT7=
EXTT8=
EXTT9=
EXTT10=
EXTT11=
EXTT12=
PLAYORDER=
